<?xml version="1.0" encoding="UTF-8" standalone="no"?>
<svg
   xmlns:dc="http://purl.org/dc/elements/1.1/"
   xmlns:cc="http://creativecommons.org/ns#"
   xmlns:rdf="http://www.w3.org/1999/02/22-rdf-syntax-ns#"
   xmlns:svg="http://www.w3.org/2000/svg"
   xmlns="http://www.w3.org/2000/svg"
   xmlns:sodipodi="http://sodipodi.sourceforge.net/DTD/sodipodi-0.dtd"
   xmlns:inkscape="http://www.inkscape.org/namespaces/inkscape"
   role="img"
   viewBox="-4.34 -4.34 800 98.682493"
   version="1.1"
   id="svg295"
   sodipodi:docname="kubernetes-horizontal-color.svg"
   width="800"
   height="98.682495"
   inkscape:version="0.92.2 5c3e80d, 2017-08-06">
  <metadata
     id="metadata299">
    <rdf:RDF>
      <cc:Work
         rdf:about="">
        <dc:format>image/svg+xml</dc:format>
        <dc:type
           rdf:resource="http://purl.org/dc/dcmitype/StillImage" />
        <dc:title></dc:title>
      </cc:Work>
    </rdf:RDF>
  </metadata>
  <sodipodi:namedview
     pagecolor="#ffffff"
     bordercolor="#666666"
     borderopacity="1"
     objecttolerance="10"
     gridtolerance="10"
     guidetolerance="10"
     inkscape:pageopacity="0"
     inkscape:pageshadow="2"
     inkscape:window-width="1499"
     inkscape:window-height="866"
     id="namedview297"
     showgrid="false"
     inkscape:zoom="2.3953242"
     inkscape:cx="338.69777"
     inkscape:cy="90.571666"
     inkscape:window-x="3"
     inkscape:window-y="1"
     inkscape:window-maximized="0"
     inkscape:current-layer="svg295">
    <sodipodi:guide
       position="0,0"
       orientation="0,429.77481"
       id="guide3990"
       inkscape:locked="false" />
    <sodipodi:guide
       position="429.77481,0"
       orientation="-98.682495,0"
       id="guide3992"
       inkscape:locked="false" />
    <sodipodi:guide
       position="429.77481,98.682494"
       orientation="0,-429.77481"
       id="guide3994"
       inkscape:locked="false" />
    <sodipodi:guide
       position="0,98.682494"
       orientation="98.682495,0"
       id="guide3996"
       inkscape:locked="false" />
  </sodipodi:namedview>
  <defs
     id="defs271">
    <style
       id="style269">.cls-1{fill:#fff}.cls-2{fill:#326ce5}</style>
  </defs>
  <path
     d="m 377.19982,54.752572 h 4.881 v 3.876 h -4.881 z"
     class="cls-1"
     id="path285"
     inkscape:connector-curvature="0"
     style="fill:#ffffff" />
  <path
     d="m 434.27082,51.560572 a 1.65,1.65 0 0 0 -0.393,-0.03 1.694,1.694 0 0 0 -0.655,0.17 1.712,1.712 0 0 0 -0.829,2.218 l -0.012,0.017 3.92,9.47 a 20.008,20.008 0 0 0 8.087,-10.159 l -10.101,-1.707 z m -15.717,1.342 a 1.71,1.71 0 0 0 -1.64,-1.33 1.68,1.68 0 0 0 -0.337,0.03 l -0.017,-0.021 -10.013,1.7 a 20.084,20.084 0 0 0 8.062,10.087 l 3.88,-9.376 -0.03,-0.037 a 1.693,1.693 0 0 0 0.095,-1.053 z m 8.386,3.677 a 1.709,1.709 0 0 0 -3.014,0.004 h -0.008 l -4.924,8.904 a 20.057,20.057 0 0 0 10.946,0.563 q 1.01,-0.23 1.973,-0.551 l -4.936,-8.92 z m 15.588,-20.683 -7.576,6.78 0.004,0.022 a 1.712,1.712 0 0 0 0.671,2.939 l 0.009,0.041 9.814,2.827 a 20.352,20.352 0 0 0 -2.922,-12.609 z m -14.075,0.759 a 1.712,1.712 0 0 0 2.718,1.305 l 0.03,0.013 8.29,-5.878 a 20.155,20.155 0 0 0 -11.623,-5.603 l 0.576,10.16 z m -8.779,1.343 a 1.71,1.71 0 0 0 2.714,-1.31 l 0.042,-0.02 0.576,-10.176 a 20.534,20.534 0 0 0 -2.069,0.356 19.979,19.979 0 0 0 -9.623,5.244 l 8.344,5.915 z m -4.448,7.689 a 1.71,1.71 0 0 0 0.672,-2.94 l 0.008,-0.04 -7.618,-6.814 a 19.973,19.973 0 0 0 -2.835,12.645 l 9.765,-2.818 z m 7.399,2.993 2.81,1.351 2.802,-1.348 0.696,-3.025 -1.939,-2.425 h -3.121 l -1.945,2.421 z"
     class="cls-2"
     id="path287"
     inkscape:connector-curvature="0"
     style="fill:#326ce5" />
  <path
     d="m 471.89182,54.640572 -8.008,-34.783 a 6.252,6.252 0 0 0 -3.352,-4.17 l -32.414,-15.47599957 a 6.246,6.246 0 0 0 -5.38,0 l -32.407,15.48399957 a 6.25,6.25 0 0 0 -3.353,4.17 l -7.995,34.782 a 6.12,6.12 0 0 0 -0.002,2.67 6.207,6.207 0 0 0 0.226,0.79 6.022,6.022 0 0 0 0.617,1.253 c 0.11,0.168 0.226,0.331 0.352,0.489 l 22.432,27.89 c 0.098,0.121 0.206,0.232 0.313,0.345 a 6.17,6.17 0 0 0 1.183,0.98 6.4,6.4 0 0 0 1.773,0.771 6.112,6.112 0 0 0 1.576,0.217 h 0.349 l 35.624,-0.008 a 5.973,5.973 0 0 0 0.648,-0.038 6.191,6.191 0 0 0 0.914,-0.174 6.372,6.372 0 0 0 0.635,-0.203 c 0.162,-0.062 0.324,-0.124 0.48,-0.199 a 6.41,6.41 0 0 0 0.68,-0.378 6.115,6.115 0 0 0 1.488,-1.317 l 0.684,-0.85 21.74,-27.045 a 6.06,6.06 0 0 0 0.969,-1.74 6.285,6.285 0 0 0 0.23,-0.792 6.105,6.105 0 0 0 -0.002,-2.67 z m -33.621,13.528 a 6.671,6.671 0 0 0 0.323,0.783 1.523,1.523 0 0 0 -0.15,1.144 18.097,18.097 0 0 0 1.72,3.08 16.12,16.12 0 0 1 1.04,1.546 c 0.078,0.145 0.18,0.369 0.254,0.522 a 1.949,1.949 0 1 1 -3.507,1.658 c -0.074,-0.152 -0.177,-0.354 -0.24,-0.497 a 16.21,16.21 0 0 1 -0.563,-1.778 18.067,18.067 0 0 0 -1.331,-3.262 1.533,1.533 0 0 0 -0.99,-0.601 c -0.062,-0.107 -0.292,-0.528 -0.415,-0.746 a 25.104,25.104 0 0 1 -17.902,-0.046 l -0.439,0.796 a 1.576,1.576 0 0 0 -0.836,0.407 13.567,13.567 0 0 0 -1.502,3.485 16.041,16.041 0 0 1 -0.56,1.778 c -0.062,0.142 -0.166,0.342 -0.24,0.493 v 0.004 l -0.003,0.004 a 1.948,1.948 0 1 1 -3.502,-1.662 c 0.073,-0.154 0.171,-0.377 0.248,-0.522 a 16.17,16.17 0 0 1 1.04,-1.55 18.95,18.95 0 0 0 1.756,-3.156 1.925,1.925 0 0 0 -0.173,-1.097 l 0.353,-0.846 a 25.244,25.244 0 0 1 -11.187,-13.967 l -0.845,0.144 a 2.151,2.151 0 0 0 -1.116,-0.393 18.167,18.167 0 0 0 -3.381,0.995 16.354,16.354 0 0 1 -1.741,0.667 c -0.14,0.038 -0.342,0.077 -0.502,0.112 -0.013,0.004 -0.024,0.01 -0.037,0.013 a 0.277,0.277 0 0 1 -0.03,0.003 1.947,1.947 0 1 1 -0.861,-3.78 l 0.028,-0.007 0.017,-0.005 c 0.162,-0.038 0.37,-0.092 0.518,-0.12 a 16.212,16.212 0 0 1 1.861,-0.15 18.105,18.105 0 0 0 3.477,-0.571 2.682,2.682 0 0 0 0.834,-0.841 l 0.812,-0.237 a 25.102,25.102 0 0 1 3.959,-17.5 l -0.622,-0.554 a 2.155,2.155 0 0 0 -0.39,-1.12 18.094,18.094 0 0 0 -2.885,-2.027 16.203,16.203 0 0 1 -1.608,-0.94 c -0.118,-0.088 -0.274,-0.22 -0.402,-0.324 l -0.029,-0.02 a 2.056,2.056 0 0 1 -0.477,-2.86 1.869,1.869 0 0 1 1.546,-0.684 2.312,2.312 0 0 1 1.352,0.51 c 0.132,0.104 0.313,0.242 0.43,0.343 a 16.204,16.204 0 0 1 1.278,1.356 18.102,18.102 0 0 0 2.615,2.363 1.532,1.532 0 0 0 1.152,0.112 c 0.111,0.082 0.486,0.35 0.7,0.497 a 24.953,24.953 0 0 1 12.675,-7.241 25.303,25.303 0 0 1 3.507,-0.539 l 0.046,-0.82 a 2.115,2.115 0 0 0 0.63,-1.004 18.143,18.143 0 0 0 -0.216,-3.518 16.306,16.306 0 0 1 -0.265,-1.845 c -0.005,-0.141 0.003,-0.336 0.005,-0.497 0,-0.018 -0.005,-0.036 -0.005,-0.054 a 1.95,1.95 0 1 1 3.88,-0.002 c 0,0.17 0.01,0.396 0.004,0.552 a 16.138,16.138 0 0 1 -0.266,1.844 18.17,18.17 0 0 0 -0.22,3.519 1.537,1.537 0 0 0 0.634,0.97 c 0.007,0.14 0.03,0.608 0.047,0.866 a 25.422,25.422 0 0 1 16.102,7.78 l 0.738,-0.527 a 2.156,2.156 0 0 0 1.177,-0.128 18.17,18.17 0 0 0 2.615,-2.366 16.092,16.092 0 0 1 1.281,-1.356 c 0.119,-0.102 0.299,-0.239 0.43,-0.343 a 1.95,1.95 0 1 1 2.417,3.033 c -0.13,0.105 -0.302,0.252 -0.427,0.345 a 16.134,16.134 0 0 1 -1.612,0.94 18.153,18.153 0 0 0 -2.885,2.027 1.534,1.534 0 0 0 -0.364,1.099 c -0.108,0.099 -0.487,0.435 -0.688,0.617 a 25.205,25.205 0 0 1 4.041,17.458 l 0.783,0.228 a 2.181,2.181 0 0 0 0.837,0.842 18.14,18.14 0 0 0 3.478,0.572 16.381,16.381 0 0 1 1.86,0.149 c 0.163,0.03 0.399,0.095 0.565,0.133 a 1.947,1.947 0 1 1 -0.863,3.78 l -0.028,-0.004 c -0.013,-0.003 -0.025,-0.01 -0.038,-0.013 -0.16,-0.035 -0.361,-0.07 -0.501,-0.107 a 16.153,16.153 0 0 1 -1.74,-0.672 18.145,18.145 0 0 0 -3.384,-0.995 1.534,1.534 0 0 0 -1.086,0.403 q -0.413,-0.079 -0.829,-0.145 a 25.243,25.243 0 0 1 -11.182,14.067 z"
     class="cls-2"
     id="path289"
     inkscape:connector-curvature="0"
     style="fill:#326ce5" />
  <path
     d="m 476.11982,55.532572 -8.736,-37.948 a 6.82,6.82 0 0 0 -3.658,-4.55 l -35.362,-16.8829996 a 6.814,6.814 0 0 0 -5.87,0 l -35.359,16.8929996 a 6.82,6.82 0 0 0 -3.659,4.548 l -8.721,37.95 a 6.742,6.742 0 0 0 0.917,5.141 c 0.12,0.184 0.247,0.362 0.385,0.534 l 24.474,30.43 a 6.885,6.885 0 0 0 5.285,2.522 l 39.247,-0.009 a 6.888,6.888 0 0 0 5.286,-2.519 l 24.465,-30.433 a 6.766,6.766 0 0 0 1.306,-5.675 z m -4.227,1.777 a 6.285,6.285 0 0 1 -0.229,0.792 6.06,6.06 0 0 1 -0.97,1.74 l -21.74,27.044 -0.683,0.851 a 6.115,6.115 0 0 1 -1.489,1.317 6.41,6.41 0 0 1 -0.678,0.378 q -0.236,0.109 -0.48,0.198 a 6.374,6.374 0 0 1 -0.636,0.204 6.193,6.193 0 0 1 -0.914,0.174 5.973,5.973 0 0 1 -0.648,0.038 l -35.624,0.008 h -0.349 a 6.112,6.112 0 0 1 -1.576,-0.217 6.4,6.4 0 0 1 -1.772,-0.771 6.17,6.17 0 0 1 -1.184,-0.98 c -0.107,-0.113 -0.215,-0.224 -0.313,-0.345 l -22.432,-27.89 q -0.188,-0.236 -0.352,-0.49 a 6.022,6.022 0 0 1 -0.617,-1.253 6.206,6.206 0 0 1 -0.226,-0.79 6.12,6.12 0 0 1 0.002,-2.67 l 7.995,-34.783 a 6.25,6.25 0 0 1 3.353,-4.169 l 32.408,-15.48299957 a 6.246,6.246 0 0 1 5.38,0 l 32.413,15.47599957 a 6.252,6.252 0 0 1 3.352,4.17 l 8.008,34.783 a 6.105,6.105 0 0 1 10e-4,2.669 z"
     class="cls-1"
     id="path291"
     inkscape:connector-curvature="0"
     style="fill:#ffffff" />
  <path
     d="m 457.92182,51.854572 c -0.166,-0.038 -0.402,-0.103 -0.564,-0.133 a 16.38,16.38 0 0 0 -1.86,-0.15 18.14,18.14 0 0 1 -3.479,-0.571 2.181,2.181 0 0 1 -0.837,-0.842 l -0.783,-0.228 a 25.205,25.205 0 0 0 -4.04,-17.458 c 0.2,-0.182 0.58,-0.518 0.687,-0.617 a 1.534,1.534 0 0 1 0.364,-1.099 18.153,18.153 0 0 1 2.885,-2.027 16.13,16.13 0 0 0 1.612,-0.94 c 0.125,-0.093 0.296,-0.24 0.427,-0.345 a 1.95,1.95 0 1 0 -2.416,-3.033 c -0.132,0.104 -0.312,0.241 -0.43,0.343 a 16.09,16.09 0 0 0 -1.282,1.356 18.17,18.17 0 0 1 -2.615,2.366 2.156,2.156 0 0 1 -1.177,0.128 l -0.738,0.527 a 25.422,25.422 0 0 0 -16.102,-7.78 c -0.018,-0.258 -0.04,-0.725 -0.047,-0.866 a 1.537,1.537 0 0 1 -0.633,-0.97 18.171,18.171 0 0 1 0.22,-3.519 16.138,16.138 0 0 0 0.264,-1.844 c 0.006,-0.156 -0.003,-0.383 -0.003,-0.552 a 1.95,1.95 0 1 0 -3.88,0.002 c 0,0.018 0.004,0.036 0.005,0.054 -0.002,0.161 -0.01,0.356 -0.005,0.497 a 16.305,16.305 0 0 0 0.265,1.845 18.144,18.144 0 0 1 0.216,3.518 2.115,2.115 0 0 1 -0.63,1.003 l -0.046,0.821 a 25.303,25.303 0 0 0 -3.507,0.539 24.953,24.953 0 0 0 -12.674,7.241 q -0.354,-0.244 -0.701,-0.497 a 1.532,1.532 0 0 1 -1.152,-0.112 18.102,18.102 0 0 1 -2.615,-2.363 16.206,16.206 0 0 0 -1.277,-1.356 c -0.118,-0.101 -0.299,-0.239 -0.431,-0.344 a 2.312,2.312 0 0 0 -1.352,-0.51 1.869,1.869 0 0 0 -1.546,0.684 2.056,2.056 0 0 0 0.477,2.86 l 0.03,0.021 c 0.127,0.104 0.283,0.237 0.401,0.323 a 16.205,16.205 0 0 0 1.608,0.941 18.094,18.094 0 0 1 2.885,2.028 2.155,2.155 0 0 1 0.39,1.119 l 0.621,0.555 a 25.102,25.102 0 0 0 -3.958,17.5 l -0.812,0.236 a 2.682,2.682 0 0 1 -0.834,0.84 18.105,18.105 0 0 1 -3.477,0.573 16.21,16.21 0 0 0 -1.861,0.15 c -0.149,0.027 -0.356,0.08 -0.518,0.12 l -0.017,0.004 -0.028,0.008 a 1.947,1.947 0 1 0 0.862,3.78 l 0.029,-0.004 c 0.013,-0.003 0.024,-0.01 0.037,-0.012 0.16,-0.036 0.361,-0.075 0.502,-0.113 a 16.358,16.358 0 0 0 1.74,-0.667 18.167,18.167 0 0 1 3.382,-0.995 2.151,2.151 0 0 1 1.115,0.394 l 0.846,-0.145 a 25.244,25.244 0 0 0 11.187,13.967 l -0.353,0.846 a 1.925,1.925 0 0 1 0.173,1.097 18.949,18.949 0 0 1 -1.756,3.155 16.172,16.172 0 0 0 -1.04,1.55 c -0.077,0.146 -0.175,0.37 -0.249,0.523 a 1.948,1.948 0 1 0 3.503,1.662 l 0.003,-0.004 v -0.004 c 0.074,-0.152 0.178,-0.351 0.24,-0.493 a 16.04,16.04 0 0 0 0.56,-1.778 13.567,13.567 0 0 1 1.502,-3.485 1.576,1.576 0 0 1 0.836,-0.408 l 0.44,-0.795 a 25.104,25.104 0 0 0 17.901,0.045 c 0.123,0.22 0.353,0.64 0.414,0.746 a 1.533,1.533 0 0 1 0.99,0.602 18.067,18.067 0 0 1 1.332,3.262 16.215,16.215 0 0 0 0.563,1.778 c 0.063,0.143 0.166,0.345 0.24,0.497 a 1.949,1.949 0 1 0 3.507,-1.658 c -0.074,-0.153 -0.176,-0.377 -0.253,-0.522 a 16.12,16.12 0 0 0 -1.04,-1.546 18.096,18.096 0 0 1 -1.72,-3.08 1.523,1.523 0 0 1 0.149,-1.144 6.672,6.672 0 0 1 -0.323,-0.783 25.243,25.243 0 0 0 11.182,-14.067 c 0.251,0.04 0.688,0.116 0.83,0.145 a 1.534,1.534 0 0 1 1.085,-0.403 18.145,18.145 0 0 1 3.383,0.995 16.15,16.15 0 0 0 1.741,0.672 c 0.14,0.037 0.34,0.072 0.501,0.107 0.013,0.004 0.025,0.01 0.038,0.013 l 0.028,0.004 a 1.947,1.947 0 1 0 0.863,-3.78 z m -18.432,-19.758 -8.29,5.877 -0.029,-0.013 a 1.711,1.711 0 0 1 -2.345,-0.314 1.694,1.694 0 0 1 -0.373,-0.991 l -0.009,-0.004 -0.576,-10.16 a 20.155,20.155 0 0 1 11.622,5.605 z m -15.617,11.136 h 3.12 l 1.94,2.425 -0.696,3.025 -2.802,1.348 -2.81,-1.351 -0.697,-3.026 z m -2.936,-16.385 a 20.535,20.535 0 0 1 2.07,-0.356 l -0.577,10.175 -0.042,0.02 a 1.71,1.71 0 0 1 -2.714,1.311 l -0.016,0.009 -8.344,-5.916 a 19.98,19.98 0 0 1 9.623,-5.243 z m -12.649,9.046 7.618,6.813 -0.008,0.042 a 1.71,1.71 0 0 1 -0.672,2.939 l -0.008,0.033 -9.765,2.818 a 19.973,19.973 0 0 1 2.835,-12.645 z m 10.2,18.1 -3.88,9.375 a 20.084,20.084 0 0 1 -8.06,-10.088 l 10.012,-1.7 0.017,0.022 a 1.68,1.68 0 0 1 0.336,-0.03 1.71,1.71 0 0 1 1.546,2.383 z m 11.452,12.057 a 20.057,20.057 0 0 1 -10.946,-0.563 l 4.924,-8.904 h 0.008 a 1.712,1.712 0 0 1 3.014,-0.003 h 0.037 l 4.936,8.919 q -0.961,0.321 -1.973,0.551 z m 6.362,-2.644 -3.92,-9.471 0.012,-0.017 a 1.712,1.712 0 0 1 0.829,-2.217 1.694,1.694 0 0 1 0.655,-0.17 1.65,1.65 0 0 1 0.393,0.029 l 0.017,-0.021 10.101,1.707 a 20.008,20.008 0 0 1 -8.087,10.16 z m 9.148,-14.901 -9.814,-2.827 -0.009,-0.041 a 1.712,1.712 0 0 1 -0.671,-2.94 l -0.004,-0.02 7.576,-6.78 a 20.352,20.352 0 0 1 2.922,12.608 z"
     class="cls-1"
     id="path293"
     inkscape:connector-curvature="0"
     style="fill:#ffffff" />
</svg>
